<svg width="15" height="64" viewBox="0 0 15 64" fill="none" xmlns="http://www.w3.org/2000/svg">
<path d="M7.5 15C11.6421 15 15 11.6421 15 7.5C15 3.35786 11.6421 0 7.5 0C3.35786 0 0 3.35786 0 7.5C0 11.6421 3.35786 15 7.5 15Z" fill="white"/>
<path d="M7.5 64C11.6421 64 15 60.6421 15 56.5C15 52.3579 11.6421 49 7.5 49C3.35786 49 0 52.3579 0 56.5C0 60.6421 3.35786 64 7.5 64Z" fill="white"/>
<path d="M7.5 39.5C11.6421 39.5 15 36.1421 15 32C15 27.8579 11.6421 24.5 7.5 24.5C3.35786 24.5 0 27.8579 0 32C0 36.1421 3.35786 39.5 7.5 39.5Z" fill="white"/>
</svg>
