<svg width="23" height="72" viewBox="0 0 23 72" fill="none" xmlns="http://www.w3.org/2000/svg">
<g filter="url(#filter0_d)">
<path d="M11.5 15C15.6421 15 19 11.6421 19 7.5C19 3.35786 15.6421 0 11.5 0C7.35786 0 4 3.35786 4 7.5C4 11.6421 7.35786 15 11.5 15Z" fill="white"/>
<path d="M11.5 64C15.6421 64 19 60.6421 19 56.5C19 52.3579 15.6421 49 11.5 49C7.35786 49 4 52.3579 4 56.5C4 60.6421 7.35786 64 11.5 64Z" fill="white"/>
<path d="M11.5 39.5C15.6421 39.5 19 36.1421 19 32C19 27.8579 15.6421 24.5 11.5 24.5C7.35786 24.5 4 27.8579 4 32C4 36.1421 7.35786 39.5 11.5 39.5Z" fill="white"/>
</g>
<defs>
<filter id="filter0_d" x="0" y="0" width="23" height="72" filterUnits="userSpaceOnUse" color-interpolation-filters="sRGB">
<feFlood flood-opacity="0" result="BackgroundImageFix"/>
<feColorMatrix in="SourceAlpha" type="matrix" values="0 0 0 0 0 0 0 0 0 0 0 0 0 0 0 0 0 0 127 0" result="hardAlpha"/>
<feOffset dy="4"/>
<feGaussianBlur stdDeviation="2"/>
<feComposite in2="hardAlpha" operator="out"/>
<feColorMatrix type="matrix" values="0 0 0 0 0 0 0 0 0 0 0 0 0 0 0 0 0 0 0.25 0"/>
<feBlend mode="normal" in2="BackgroundImageFix" result="effect1_dropShadow"/>
<feBlend mode="normal" in="SourceGraphic" in2="effect1_dropShadow" result="shape"/>
</filter>
</defs>
</svg>
